<?xml version="1.0" standalone="no"?>
<!DOCTYPE svg PUBLIC "-//W3C//DTD SVG 20010904//EN"
 "http://www.w3.org/TR/2001/REC-SVG-20010904/DTD/svg10.dtd">
<svg version="1.0" xmlns="http://www.w3.org/2000/svg"
 width="64.000000pt" height="64.000000pt" viewBox="0 0 64.000000 64.000000"
 preserveAspectRatio="xMidYMid meet">

<g transform="translate(0.000000,64.000000) scale(0.100000,-0.100000)"
fill="#000000" stroke="none">
<path d="M422 508 c-7 -7 -12 -18 -12 -25 0 -7 -11 -13 -23 -13 -17 0 -33 -14
-58 -50 -19 -27 -38 -50 -44 -50 -5 0 -25 9 -43 20 -40 25 -41 25 -35 1 4 -16
1 -19 -16 -14 -31 8 -26 -12 10 -38 28 -20 36 -21 87 -12 44 8 61 7 77 -3 19
-13 24 -9 73 56 44 59 49 71 36 78 -15 8 -15 11 1 36 l17 26 -29 0 c-16 0 -34
-5 -41 -12z"/>
<path d="M212 276 c-1 -36 22 -56 42 -36 5 5 19 10 30 10 23 0 16 8 -35 38
l-36 22 -1 -34z"/>
<path d="M170 188 c-6 -24 -13 -49 -15 -56 -3 -7 13 2 35 20 42 35 51 62 24
72 -28 11 -33 7 -44 -36z"/>
</g>
</svg>
